<svg width="32" height="32" viewBox="0 0 32 32" xmlns="http://www.w3.org/2000/svg">
  <!-- Main chat bubble with Windows XP gradient -->
  <defs>
    <linearGradient id="bubbleGradient" x1="0%" y1="0%" x2="0%" y2="100%">
      <stop offset="0%" style="stop-color:#E8F4FD;stop-opacity:1" />
      <stop offset="100%" style="stop-color:#C5E3F6;stop-opacity:1" />
    </linearGradient>
    <linearGradient id="bubbleShadow" x1="0%" y1="0%" x2="0%" y2="100%">
      <stop offset="0%" style="stop-color:#B0D4E8;stop-opacity:1" />
      <stop offset="100%" style="stop-color:#8BB8D1;stop-opacity:1" />
    </linearGradient>
  </defs>
  
  <!-- Shadow/outline -->
  <path d="M 6 4 L 24 4 L 24 20 L 20 20 L 20 24 L 12 20 L 6 20 Z" 
        fill="url(#bubbleShadow)" stroke="#8BB8D1" stroke-width="0.5"/>
  
  <!-- Main bubble -->
  <path d="M 6 4 L 24 4 L 24 20 L 20 20 L 20 24 L 12 20 L 6 20 Z" 
        fill="url(#bubbleGradient)" stroke="#5A9BC4" stroke-width="0.5"/>
  
  <!-- Highlight on top -->
  <path d="M 6 4 L 24 4 L 24 8 L 6 8 Z" 
        fill="#F0F8FF" opacity="0.6"/>
  
  <!-- Chat lines (representing conversation) -->
  <line x1="9" y1="8" x2="19" y2="8" stroke="#4A7A9C" stroke-width="1.2" stroke-linecap="round"/>
  <line x1="9" y1="11" x2="21" y2="11" stroke="#4A7A9C" stroke-width="1.2" stroke-linecap="round"/>
  <line x1="9" y1="14" x2="17" y2="14" stroke="#4A7A9C" stroke-width="1.2" stroke-linecap="round"/>
  <line x1="9" y1="17" x2="19" y2="17" stroke="#4A7A9C" stroke-width="1.2" stroke-linecap="round"/>
  
  <!-- Small dots (typing indicator style) -->
  <circle cx="10" cy="10.5" r="0.8" fill="#4A7A9C"/>
  <circle cx="13" cy="10.5" r="0.8" fill="#4A7A9C"/>
  <circle cx="16" cy="10.5" r="0.8" fill="#4A7A9C"/>
</svg>

